<?xml version="1.0" encoding="UTF-8" standalone="no"?>
<!-- Created with Inkscape (http://www.inkscape.org/) -->

<svg
   xmlns:dc="http://purl.org/dc/elements/1.1/"
   xmlns:cc="http://creativecommons.org/ns#"
   xmlns:rdf="http://www.w3.org/1999/02/22-rdf-syntax-ns#"
   xmlns:svg="http://www.w3.org/2000/svg"
   xmlns="http://www.w3.org/2000/svg"
   version="1.1"
   width="600"
   height="600"
   viewBox="0 0 600 600"
   id="Layer_1"
   xml:space="preserve"
   style="overflow:visible"><metadata
     id="metadata20"><rdf:RDF><cc:Work
         rdf:about=""><dc:format>image/svg+xml</dc:format><dc:type
           rdf:resource="http://purl.org/dc/dcmitype/StillImage" /><dc:title></dc:title></cc:Work></rdf:RDF></metadata><defs
     id="defs18" /><path
     d="M 300,300"
     id="path7" /><path
     d="m 300,10.00293 c 23.56445,20.075195 54.11719,32.191406 87.5,32.191406 33.38281,0 63.93555,-12.119141 87.5,-32.194336 l 115,115 c -21.16211,30.08105 -33.58789,66.75391 -33.58789,106.32617 0,28.46387 6.42676,55.42481 17.91016,79.5127 C 584.24414,331.66406 590,355.39453 590,380 590,468.36719 518.36719,540 430,540 H 404.88672 C 362.54199,540 324.75098,559.49512 300,590 275.24854,559.49512 237.45801,540 195.11328,540 H 169.99951 C 81.632813,540 9.9995117,468.36719 9.9995117,380 c 0,-24.60547 5.7563473,-48.33594 15.6787113,-69.16113 11.482422,-24.08789 17.910156,-51.04883 17.910156,-79.5127 C 43.588379,191.75391 31.161621,155.08105 10,125 L 125,10 c 23.56445,20.075195 54.1167,32.194336 87.5,32.194336 33.38281,0 63.93555,-12.116211 87.5,-32.191406 z"
     id="path11"
     style="fill:#ffffff;fill-opacity:1;fill-rule:evenodd" /><g
     id="g3886"><path
       d="M 0,50 C 0,22.385742 22.385254,0 50,0 h 500 c 27.61426,0 50,22.385742 50,50 v 500 c 0,27.61523 -22.38574,50 -50,50 H 50 C 22.385254,600 0,577.61523 0,550 V 50 l 0,0 z"
       id="path5" /><path
       d="m 300,10.00293 c 23.56445,20.075195 54.11719,32.191406 87.5,32.191406 33.38281,0 63.93555,-12.119141 87.5,-32.194336 l 115,115 c -21.16211,30.08105 -33.58789,66.75391 -33.58789,106.32617 0,28.46387 6.42676,55.42481 17.91016,79.5127 C 584.24414,331.66406 590,355.39453 590,380 590,468.36719 518.36719,540 430,540 H 404.88672 C 362.54199,540 324.75098,559.49512 300,590 275.24854,559.49512 237.45801,540 195.11328,540 H 169.99951 C 81.632813,540 9.9995117,468.36719 9.9995117,380 c 0,-24.60547 5.7563473,-48.33594 15.6787113,-69.16113 11.482422,-24.08789 17.910156,-51.04883 17.910156,-79.5127 C 43.588379,191.75391 31.161621,155.08105 10,125 L 125,10 c 23.56445,20.075195 54.1167,32.194336 87.5,32.194336 33.38281,0 63.93555,-12.116211 87.5,-32.191406 z"
       id="path13"
       style="fill:#ffffff;fill-opacity:1;fill-rule:evenodd;stroke:#000000;stroke-linecap:round;stroke-linejoin:round;stroke-miterlimit:3.863693" /></g><g
     id="text1343"
     style="font-size:447.76119995px;font-style:normal;font-variant:normal;font-weight:normal;font-stretch:normal;text-align:center;line-height:125%;writing-mode:lr-tb;text-anchor:middle;font-family:Roadgeek 2005 Series D"><path
       d="m 235.09211,362.72388 0,74.77612 -47.01493,0 0,-74.77612 -148.656717,0 0,-28.20896 L 188.07718,137.5 l 47.01493,0 0,182.2388 28.65671,0 0,42.98508 -28.65671,0 m -47.01493,-155.8209 -85.52239,112.83582 85.52239,0 0,-112.83582"
       id="path4084" /><path
       d="m 501.82486,362.72388 0,74.77612 -47.01492,0 0,-74.77612 -148.65672,0 0,-28.20896 L 454.80994,137.5 l 47.01492,0 0,182.2388 28.65672,0 0,42.98508 -28.65672,0 m -47.01492,-155.8209 -85.52239,112.83582 85.52239,0 0,-112.83582"
       id="path4086" /></g></svg>